<svg xmlns="http://www.w3.org/2000/svg" xmlns:xlink="http://www.w3.org/1999/xlink" contentStyleType="text/css" height="585px" preserveAspectRatio="none" style="width:806px;height:585px;background:#FFFFFF;" version="1.1" viewBox="0 0 806 585" width="806px" zoomAndPan="magnify"><defs/><g><!--cluster DLP module components--><g id="cluster_DLP module components"><path d="M189.37,6.602 L359.6379,6.602 A7.5,7.5 0 0 1 364.6379,11.602 L371.6379,31.6699 L564.37,31.6699 A5,5 0 0 1 569.37,36.6699 L569.37,573.482 A5,5 0 0 1 564.37,578.482 L189.37,578.482 A5,5 0 0 1 184.37,573.482 L184.37,11.602 A5,5 0 0 1 189.37,6.602 " fill="none" style="stroke:#000000;stroke-width:1.5;"/><line style="stroke:#000000;stroke-width:1.5;" x1="184.37" x2="371.6379" y1="31.6699" y2="31.6699"/><text fill="#000000" font-family="sans-serif" font-size="14" font-weight="bold" lengthAdjust="spacing" textLength="174.2679" x="188.37" y="23.5679">DLP module components</text></g><!--entity FR--><g id="elem_FR"><rect fill="#F1F1F1" height="68.1358" rx="5" ry="5" style="stroke:#181818;stroke-width:0.5;" width="125.0357" x="200.85" y="44.602"/><rect fill="#F1F1F1" height="10" style="stroke:#181818;stroke-width:0.5;" width="15" x="305.8857" y="49.602"/><rect fill="#F1F1F1" height="2" style="stroke:#181818;stroke-width:0.5;" width="4" x="303.8857" y="51.602"/><rect fill="#F1F1F1" height="2" style="stroke:#181818;stroke-width:0.5;" width="4" x="303.8857" y="55.602"/><text fill="#000000" font-family="sans-serif" font-size="14" lengthAdjust="spacing" textLength="85.0357" x="215.85" y="79.5679">1 File Stream</text><text fill="#000000" font-family="sans-serif" font-size="14" lengthAdjust="spacing" textLength="55.6218" x="215.85" y="98.6358">Receiver</text></g><!--entity KW--><g id="elem_KW"><rect fill="#F1F1F1" height="49.0679" rx="5" ry="5" style="stroke:#181818;stroke-width:0.5;" width="138.0556" x="415.34" y="269.472"/><rect fill="#F1F1F1" height="10" style="stroke:#181818;stroke-width:0.5;" width="15" x="533.3956" y="274.472"/><rect fill="#F1F1F1" height="2" style="stroke:#181818;stroke-width:0.5;" width="4" x="531.3956" y="276.472"/><rect fill="#F1F1F1" height="2" style="stroke:#181818;stroke-width:0.5;" width="4" x="531.3956" y="280.472"/><text fill="#000000" font-family="sans-serif" font-size="14" lengthAdjust="spacing" textLength="98.0556" x="430.34" y="304.4379">2 KATA Worker</text></g><!--entity SW--><g id="elem_SW"><rect fill="#F1F1F1" height="68.1358" rx="5" ry="5" style="stroke:#181818;stroke-width:0.5;" width="141.7936" x="411.47" y="152.272"/><rect fill="#F1F1F1" height="10" style="stroke:#181818;stroke-width:0.5;" width="15" x="533.2636" y="157.272"/><rect fill="#F1F1F1" height="2" style="stroke:#181818;stroke-width:0.5;" width="4" x="531.2636" y="159.272"/><rect fill="#F1F1F1" height="2" style="stroke:#181818;stroke-width:0.5;" width="4" x="531.2636" y="163.272"/><text fill="#000000" font-family="sans-serif" font-size="14" lengthAdjust="spacing" textLength="101.7936" x="426.47" y="187.2379">3 SearchInform</text><text fill="#000000" font-family="sans-serif" font-size="14" lengthAdjust="spacing" textLength="48.4258" x="426.47" y="206.3058">Worker</text></g><!--entity TR--><g id="elem_TR"><rect fill="#F1F1F1" height="49.0679" rx="5" ry="5" style="stroke:#181818;stroke-width:0.5;" width="100.9418" x="452.89" y="54.132"/><rect fill="#F1F1F1" height="10" style="stroke:#181818;stroke-width:0.5;" width="15" x="533.8318" y="59.132"/><rect fill="#F1F1F1" height="2" style="stroke:#181818;stroke-width:0.5;" width="4" x="531.8318" y="61.132"/><rect fill="#F1F1F1" height="2" style="stroke:#181818;stroke-width:0.5;" width="4" x="531.8318" y="65.132"/><text fill="#000000" font-family="sans-serif" font-size="14" lengthAdjust="spacing" textLength="60.9418" x="467.89" y="89.0979">4 Tracker</text></g><!--entity FS--><g id="elem_FS"><rect fill="#F1F1F1" height="68.1358" rx="5" ry="5" style="stroke:#181818;stroke-width:0.5;" width="87.5718" x="304.58" y="494.342"/><rect fill="#F1F1F1" height="10" style="stroke:#181818;stroke-width:0.5;" width="15" x="372.1518" y="499.342"/><rect fill="#F1F1F1" height="2" style="stroke:#181818;stroke-width:0.5;" width="4" x="370.1518" y="501.342"/><rect fill="#F1F1F1" height="2" style="stroke:#181818;stroke-width:0.5;" width="4" x="370.1518" y="505.342"/><text fill="#000000" font-family="sans-serif" font-size="14" lengthAdjust="spacing" textLength="22.3859" x="319.58" y="529.3079">File</text><text fill="#000000" font-family="sans-serif" font-size="14" lengthAdjust="spacing" textLength="47.5718" x="319.58" y="548.3758">System</text></g><!--entity RC--><g id="elem_RC"><rect fill="#6666CC" height="87.2038" rx="5" ry="5" style="stroke:#181818;stroke-width:0.5;" width="114.7317" x="7" y="35.062"/><rect fill="#6666CC" height="10" style="stroke:#181818;stroke-width:0.5;" width="15" x="101.7317" y="40.062"/><rect fill="#6666CC" height="2" style="stroke:#181818;stroke-width:0.5;" width="4" x="99.7317" y="42.062"/><rect fill="#6666CC" height="2" style="stroke:#181818;stroke-width:0.5;" width="4" x="99.7317" y="46.062"/><text fill="#000000" font-family="sans-serif" font-size="14" font-style="italic" lengthAdjust="spacing" textLength="29.5959" x="44.5679" y="70.0279">&#171;RC&#187;</text><text fill="#000000" font-family="sans-serif" font-size="14" lengthAdjust="spacing" textLength="74.7317" x="22" y="89.0958">RocketChat</text><text fill="#000000" font-family="sans-serif" font-size="14" lengthAdjust="spacing" textLength="42.1538" x="22" y="108.1638">Server</text></g><!--entity LG--><g id="elem_LG"><rect fill="#F1F1F1" height="49.0679" rx="5" ry="5" style="stroke:#181818;stroke-width:0.5;" width="86.7038" x="656.01" y="54.132"/><rect fill="#F1F1F1" height="10" style="stroke:#181818;stroke-width:0.5;" width="15" x="722.7138" y="59.132"/><rect fill="#F1F1F1" height="2" style="stroke:#181818;stroke-width:0.5;" width="4" x="720.7138" y="61.132"/><rect fill="#F1F1F1" height="2" style="stroke:#181818;stroke-width:0.5;" width="4" x="720.7138" y="65.132"/><text fill="#000000" font-family="sans-serif" font-size="14" lengthAdjust="spacing" textLength="46.7038" x="671.01" y="89.0979">Logger</text></g><!--entity QW--><g id="elem_QW"><rect fill="#FF0000" height="87.2038" rx="5" ry="5" style="stroke:#181818;stroke-width:0.5;" width="99.0798" x="55.83" y="250.402"/><rect fill="#FF0000" height="10" style="stroke:#181818;stroke-width:0.5;" width="15" x="134.9098" y="255.402"/><rect fill="#FF0000" height="2" style="stroke:#181818;stroke-width:0.5;" width="4" x="132.9098" y="257.402"/><rect fill="#FF0000" height="2" style="stroke:#181818;stroke-width:0.5;" width="4" x="132.9098" y="261.402"/><text fill="#000000" font-family="sans-serif" font-size="14" font-style="italic" lengthAdjust="spacing" textLength="35.4339" x="82.6529" y="285.3679">&#171;QW&#187;</text><text fill="#000000" font-family="sans-serif" font-size="14" lengthAdjust="spacing" textLength="59.0798" x="70.83" y="304.4358">QuickWit</text><text fill="#000000" font-family="sans-serif" font-size="14" lengthAdjust="spacing" textLength="37.3099" x="70.83" y="323.5038">Index</text></g><!--entity KT--><g id="elem_KT"><rect fill="#008000" height="87.2038" rx="5" ry="5" style="stroke:#181818;stroke-width:0.5;" width="97.7638" x="585.48" y="484.812"/><rect fill="#008000" height="10" style="stroke:#181818;stroke-width:0.5;" width="15" x="663.2438" y="489.812"/><rect fill="#008000" height="2" style="stroke:#181818;stroke-width:0.5;" width="4" x="661.2438" y="491.812"/><rect fill="#008000" height="2" style="stroke:#181818;stroke-width:0.5;" width="4" x="661.2438" y="495.812"/><text fill="#000000" font-family="sans-serif" font-size="14" font-style="italic" lengthAdjust="spacing" textLength="28.2379" x="615.2429" y="519.7779">&#171;KT&#187;</text><text fill="#000000" font-family="sans-serif" font-size="14" lengthAdjust="spacing" textLength="34.3419" x="600.48" y="538.8458">KATA</text><text fill="#000000" font-family="sans-serif" font-size="14" lengthAdjust="spacing" textLength="57.7638" x="600.48" y="557.9138">REST API</text></g><!--entity EA--><g id="elem_EA"><rect fill="#BDB76B" height="87.2038" rx="5" ry="5" style="stroke:#181818;stroke-width:0.5;" width="130.1457" x="670.29" y="367.612"/><rect fill="#BDB76B" height="10" style="stroke:#181818;stroke-width:0.5;" width="15" x="780.4357" y="372.612"/><rect fill="#BDB76B" height="2" style="stroke:#181818;stroke-width:0.5;" width="4" x="778.4357" y="374.612"/><rect fill="#BDB76B" height="2" style="stroke:#181818;stroke-width:0.5;" width="4" x="778.4357" y="378.612"/><text fill="#000000" font-family="sans-serif" font-size="14" font-style="italic" lengthAdjust="spacing" textLength="24.9619" x="717.8819" y="402.5779">&#171;SI&#187;</text><text fill="#000000" font-family="sans-serif" font-size="14" lengthAdjust="spacing" textLength="90.1457" x="685.29" y="421.6458">SearchInform</text><text fill="#000000" font-family="sans-serif" font-size="14" lengthAdjust="spacing" textLength="57.7638" x="685.29" y="440.7138">REST API</text></g><!--link RC to FR--><g id="link_RC_FR"><path d="M122.19,78.672 C146.75,78.672 169.44,78.672 194.52,78.672 " fill="none" id="RC-to-FR" style="stroke:#181818;stroke-width:2.0;"/><polygon fill="#181818" points="200.52,78.672,191.52,74.672,195.52,78.672,191.52,82.672,200.52,78.672" style="stroke:#181818;stroke-width:2.0;"/><text fill="#000000" font-family="sans-serif" font-size="13" lengthAdjust="spacing" textLength="31.603" x="145.523" y="53.569">1 File</text><text fill="#000000" font-family="sans-serif" font-size="13" lengthAdjust="spacing" textLength="43.069" x="139.79" y="71.275">stream</text></g><!--link FR to FS--><g id="link_FR_FS"><path d="M269.69,112.952 C285.42,195.842 325.1009,404.8873 340.8809,488.0073 " fill="none" id="FR-to-FS" style="stroke:#181818;stroke-width:2.0;"/><polygon fill="#181818" points="342,493.902,344.2512,484.3139,341.0674,488.9897,336.3916,485.806,342,493.902" style="stroke:#181818;stroke-width:2.0;"/><text fill="#000000" font-family="sans-serif" font-size="13" lengthAdjust="spacing" textLength="7.436" x="322.835" y="281.399">2</text><text fill="#000000" font-family="sans-serif" font-size="13" lengthAdjust="spacing" textLength="28.366" x="312.37" y="299.105">Save</text><text fill="#000000" font-family="sans-serif" font-size="13" lengthAdjust="spacing" textLength="18.512" x="317.297" y="316.811">file</text></g><!--link FR to TR--><g id="link_FR_TR"><path d="M326.11,78.672 C365.55,78.672 409.78,78.672 446.69,78.672 " fill="none" id="FR-to-TR" style="stroke:#181818;stroke-width:1.0;"/><polygon fill="#181818" points="452.69,78.672,443.69,74.672,447.69,78.672,443.69,82.672,452.69,78.672" style="stroke:#181818;stroke-width:1.0;"/><text fill="#000000" font-family="sans-serif" font-size="13" lengthAdjust="spacing" textLength="59.267" x="359.802" y="35.569">3 Task ID,</text><text fill="#000000" font-family="sans-serif" font-size="13" lengthAdjust="spacing" textLength="62.4651" x="358.203" y="53.275">File name,</text><text fill="#000000" font-family="sans-serif" font-size="13" lengthAdjust="spacing" textLength="91.0911" x="343.89" y="70.981">size, checksum</text></g><!--link TR to KW--><g id="link_TR_KW"><path d="M457.14,103.642 C416.36,124.792 363.37,152.272 363.37,152.272 C363.37,152.272 363.37,220.402 363.37,220.402 C363.37,220.402 404.0254,244.7944 439.2654,265.9444 " fill="none" id="TR-to-KW" style="stroke:#181818;stroke-width:1.0;"/><polygon fill="#181818" points="444.41,269.032,438.7516,260.9708,440.1229,266.459,434.6347,267.8303,444.41,269.032" style="stroke:#181818;stroke-width:1.0;"/><text fill="#000000" font-family="sans-serif" font-size="13" lengthAdjust="spacing" textLength="18.356" x="369.7845" y="182.729">4.1</text><text fill="#000000" font-family="sans-serif" font-size="13" lengthAdjust="spacing" textLength="29.185" x="364.37" y="200.435">Start</text></g><!--link TR to SW--><g id="link_TR_SW"><path d="M498.6,103.642 C495.77,117.892 493.2987,130.2969 490.1887,145.9569 " fill="none" id="TR-to-SW" style="stroke:#181818;stroke-width:1.0;"/><polygon fill="#181818" points="489.02,151.842,494.6965,143.7935,489.994,146.9378,486.8497,142.2352,489.02,151.842" style="stroke:#181818;stroke-width:1.0;"/></g><!--link KW to FS--><g id="link_KW_FS"><path d="M458.3605,323.191 C438.8205,344.361 417.37,367.612 417.37,367.612 C417.37,367.612 385.4381,441.5434 365.2081,488.4034 " fill="none" id="KW-FS" style="stroke:#181818;stroke-width:1.0;"/><polygon fill="#181818" points="462.43,318.782,453.3864,322.6824,459.0387,322.4561,459.2651,328.1085,462.43,318.782" style="stroke:#181818;stroke-width:1.0;"/><polygon fill="#181818" points="362.83,493.912,370.0696,487.2345,364.8118,489.3215,362.7248,484.0637,362.83,493.912" style="stroke:#181818;stroke-width:1.0;"/><text fill="#000000" font-family="sans-serif" font-size="13" lengthAdjust="spacing" textLength="18.356" x="424.545" y="398.609">5.1</text><text fill="#000000" font-family="sans-serif" font-size="13" lengthAdjust="spacing" textLength="30.706" x="418.37" y="416.315">Read</text><text fill="#000000" font-family="sans-serif" font-size="13" lengthAdjust="spacing" textLength="18.512" x="424.467" y="434.021">file</text></g><!--link SW to FS--><g id="link_SW_FS"><path d="M414.8184,223.7488 C386.8784,238.8088 365.37,250.402 365.37,250.402 C365.37,250.402 355.3074,414.3332 350.7874,488.0132 " fill="none" id="SW-FS" style="stroke:#181818;stroke-width:1.0;"/><polygon fill="#181818" points="420.1,220.902,410.2797,221.6512,415.6987,223.2744,414.0755,228.6933,420.1,220.902" style="stroke:#181818;stroke-width:1.0;"/><polygon fill="#181818" points="350.42,494.002,354.9636,485.2638,350.7262,489.0114,346.9786,484.7739,350.42,494.002" style="stroke:#181818;stroke-width:1.0;"/><text fill="#000000" font-family="sans-serif" font-size="13" lengthAdjust="spacing" textLength="18.356" x="372.545" y="281.399">5.2</text><text fill="#000000" font-family="sans-serif" font-size="13" lengthAdjust="spacing" textLength="30.706" x="366.37" y="299.105">Read</text><text fill="#000000" font-family="sans-serif" font-size="13" lengthAdjust="spacing" textLength="18.512" x="372.467" y="316.811">file</text></g><!--link KW to KT--><g id="link_KW_KT"><path d="M487.36,318.932 C492.94,363.512 504.37,454.812 504.37,454.812 C504.37,454.812 569.37,484.812 569.37,484.812 C569.37,484.812 571.0106,485.8948 580.0806,491.8348 " fill="none" id="KW-to-KT" style="stroke:#181818;stroke-width:2.0;"/><polygon fill="#181818" points="585.1,495.122,579.7624,486.8449,580.9172,492.3826,575.3794,493.5374,585.1,495.122" style="stroke:#181818;stroke-width:2.0;"/><text fill="#000000" font-family="sans-serif" font-size="13" lengthAdjust="spacing" textLength="18.356" x="520.632" y="390.109">6.1</text><text fill="#000000" font-family="sans-serif" font-size="13" lengthAdjust="spacing" textLength="26.65" x="516.485" y="407.815">Post</text><text fill="#000000" font-family="sans-serif" font-size="13" lengthAdjust="spacing" textLength="18.512" x="520.554" y="425.521">file</text><text fill="#000000" font-family="sans-serif" font-size="13" lengthAdjust="spacing" textLength="48.88" x="505.37" y="443.227">for scan</text></g><!--link KW to KT--><g id="link_KW_KT"><path d="M512.8831,322.9837 C534.4631,344.1537 558.37,367.612 558.37,367.612 C558.37,367.612 588.9135,431.8334 611.4235,479.1734 " fill="none" id="KW-KT" style="stroke:#181818;stroke-width:1.0;"/><polygon fill="#181818" points="508.6,318.782,512.2235,327.94,512.1693,322.2834,517.8259,322.2292,508.6,318.782" style="stroke:#181818;stroke-width:1.0;"/><polygon fill="#181818" points="614,484.592,613.7476,474.7464,611.8529,480.0765,606.5228,478.1817,614,484.592" style="stroke:#181818;stroke-width:1.0;"/><text fill="#000000" font-family="sans-serif" font-size="13" lengthAdjust="spacing" textLength="18.356" x="607.6965" y="398.609">7.1</text><text fill="#000000" font-family="sans-serif" font-size="13" lengthAdjust="spacing" textLength="21.489" x="606.13" y="416.315">Get</text><text fill="#000000" font-family="sans-serif" font-size="13" lengthAdjust="spacing" textLength="35.009" x="599.37" y="434.021">result</text></g><!--link SW to EA--><g id="link_SW_EA"><path d="M529.73,220.902 C550.99,235.962 571.37,250.402 571.37,250.402 C571.37,250.402 650.37,337.612 650.37,337.612 C650.37,337.612 662.0788,347.6038 680.3788,363.2438 " fill="none" id="SW-to-EA" style="stroke:#181818;stroke-width:2.0;"/><polygon fill="#181818" points="684.94,367.142,680.697,358.2539,681.139,363.8935,675.4995,364.3355,684.94,367.142" style="stroke:#181818;stroke-width:2.0;"/><text fill="#000000" font-family="sans-serif" font-size="13" lengthAdjust="spacing" textLength="18.356" x="666.632" y="272.899">6.2</text><text fill="#000000" font-family="sans-serif" font-size="13" lengthAdjust="spacing" textLength="26.65" x="662.485" y="290.605">Post</text><text fill="#000000" font-family="sans-serif" font-size="13" lengthAdjust="spacing" textLength="18.512" x="666.554" y="308.311">file</text><text fill="#000000" font-family="sans-serif" font-size="13" lengthAdjust="spacing" textLength="48.88" x="651.37" y="326.017">for scan</text></g><!--link SW to EA--><g id="link_SW_EA"><path d="M559.2916,209.1917 C624.2316,227.6417 704.37,250.402 704.37,250.402 C704.37,250.402 716.7375,314.1618 725.9175,361.4918 " fill="none" id="SW-EA" style="stroke:#181818;stroke-width:1.0;"/><polygon fill="#181818" points="553.52,207.552,561.0842,213.8593,558.3297,208.9184,563.2705,206.1639,553.52,207.552" style="stroke:#181818;stroke-width:1.0;"/><polygon fill="#181818" points="727.06,367.382,729.2731,357.785,726.108,362.4735,721.4195,359.3083,727.06,367.382" style="stroke:#181818;stroke-width:1.0;"/><text fill="#000000" font-family="sans-serif" font-size="13" lengthAdjust="spacing" textLength="18.356" x="729.6965" y="281.399">7.2</text><text fill="#000000" font-family="sans-serif" font-size="13" lengthAdjust="spacing" textLength="21.489" x="728.13" y="299.105">Get</text><text fill="#000000" font-family="sans-serif" font-size="13" lengthAdjust="spacing" textLength="35.009" x="721.37" y="316.811">result</text></g><!--link TR to QW--><g id="link_TR_QW"><path d="M452.76,99.312 C397.38,120.812 316.37,152.272 316.37,152.272 C316.37,152.272 222.7616,214.7027 160.3616,256.3227 " fill="none" id="TR-to-QW" style="stroke:#181818;stroke-width:1.0;"/><polygon fill="#181818" points="155.37,259.652,165.0769,257.9857,159.5296,256.8776,160.6378,251.3303,155.37,259.652" style="stroke:#181818;stroke-width:1.0;"/><text fill="#000000" font-family="sans-serif" font-size="13" lengthAdjust="spacing" textLength="7.436" x="332.515" y="182.729">8</text><text fill="#000000" font-family="sans-serif" font-size="13" lengthAdjust="spacing" textLength="37.726" x="317.37" y="200.435">Result</text></g><!--link TR to LG--><g id="link_TR_LG"><path d="M554.1,78.672 C585.63,78.672 619.75,78.672 649.83,78.672 " fill="none" id="TR-to-LG" style="stroke:#181818;stroke-width:1.0;"/><polygon fill="#181818" points="655.83,78.672,646.83,74.672,650.83,78.672,646.83,82.672,655.83,78.672" style="stroke:#181818;stroke-width:1.0;"/><text fill="#000000" font-family="sans-serif" font-size="13" lengthAdjust="spacing" textLength="66.9371" x="571.93" y="53.569">9 Scanning</text><text fill="#000000" font-family="sans-serif" font-size="13" lengthAdjust="spacing" textLength="48.802" x="580.9975" y="71.275">finished</text></g><!--link RC to QW--><g id="link_RC_QW"><path d="M73.7436,128.4739 C80.8836,165.5839 88.8673,207.1799 95.9973,244.2699 " fill="none" id="RC-QW" style="stroke:#181818;stroke-width:1.0;"/><polygon fill="#181818" points="72.61,122.582,70.3825,132.1756,73.5547,127.4919,78.2384,130.6641,72.61,122.582" style="stroke:#181818;stroke-width:1.0;"/><polygon fill="#181818" points="97.13,250.162,99.3591,240.5687,96.1861,245.2519,91.5029,242.0789,97.13,250.162" style="stroke:#181818;stroke-width:1.0;"/><text fill="#000000" font-family="sans-serif" font-size="13" lengthAdjust="spacing" textLength="39.741" x="92.37" y="182.729">10 Get</text><text fill="#000000" font-family="sans-serif" font-size="13" lengthAdjust="spacing" textLength="35.009" x="94.736" y="200.435">result</text></g></g></svg>